<mxfile host="app.diagrams.net" modified="2023-04-21T17:51:35.837Z" agent="Mozilla/5.0 (Windows NT 10.0; Win64; x64) AppleWebKit/537.36 (KHTML, like Gecko) Chrome/112.0.0.0 Safari/537.36" etag="gLG1KC-_AdVIFI0wlb3E" version="21.1.8" type="device">
  <diagram name="Σελίδα-1" id="CsE6YNoTUhBlBd0UO_HM">
    <mxGraphModel dx="1896" dy="2218" grid="1" gridSize="10" guides="1" tooltips="1" connect="1" arrows="1" fold="1" page="1" pageScale="1" pageWidth="827" pageHeight="1169" math="0" shadow="0">
      <root>
        <mxCell id="0" />
        <mxCell id="1" parent="0" />
        <mxCell id="NPoixGDkpMfQCLvvEqdP-10" value="" style="edgeStyle=none;curved=1;rounded=0;orthogonalLoop=1;jettySize=auto;html=1;fontSize=12;startSize=8;endSize=8;" edge="1" parent="1" source="NPoixGDkpMfQCLvvEqdP-7" target="NPoixGDkpMfQCLvvEqdP-9">
          <mxGeometry relative="1" as="geometry" />
        </mxCell>
        <mxCell id="NPoixGDkpMfQCLvvEqdP-25" value="Αξιολόγηση διατροφολόγου" style="edgeLabel;html=1;align=center;verticalAlign=middle;resizable=0;points=[];fontSize=16;" vertex="1" connectable="0" parent="NPoixGDkpMfQCLvvEqdP-10">
          <mxGeometry x="-0.2931" relative="1" as="geometry">
            <mxPoint x="75" as="offset" />
          </mxGeometry>
        </mxCell>
        <mxCell id="NPoixGDkpMfQCLvvEqdP-23" value="" style="edgeStyle=none;curved=1;rounded=0;orthogonalLoop=1;jettySize=auto;html=1;fontSize=12;startSize=8;endSize=8;" edge="1" parent="1" source="NPoixGDkpMfQCLvvEqdP-7" target="NPoixGDkpMfQCLvvEqdP-15">
          <mxGeometry relative="1" as="geometry" />
        </mxCell>
        <mxCell id="NPoixGDkpMfQCLvvEqdP-24" value="Επιλογή διατροφολόγου" style="edgeLabel;html=1;align=center;verticalAlign=middle;resizable=0;points=[];fontSize=16;" vertex="1" connectable="0" parent="NPoixGDkpMfQCLvvEqdP-23">
          <mxGeometry x="-0.1751" y="-3" relative="1" as="geometry">
            <mxPoint as="offset" />
          </mxGeometry>
        </mxCell>
        <mxCell id="NPoixGDkpMfQCLvvEqdP-34" value="" style="edgeStyle=none;curved=1;rounded=0;orthogonalLoop=1;jettySize=auto;html=1;fontSize=12;startSize=8;endSize=8;" edge="1" parent="1" source="NPoixGDkpMfQCLvvEqdP-7" target="NPoixGDkpMfQCLvvEqdP-33">
          <mxGeometry relative="1" as="geometry">
            <Array as="points">
              <mxPoint x="250" y="350" />
            </Array>
          </mxGeometry>
        </mxCell>
        <mxCell id="NPoixGDkpMfQCLvvEqdP-35" value="Συμπληρώνει τα πεδία της φόρμας" style="edgeLabel;html=1;align=center;verticalAlign=middle;resizable=0;points=[];fontSize=16;" vertex="1" connectable="0" parent="NPoixGDkpMfQCLvvEqdP-34">
          <mxGeometry x="0.1499" relative="1" as="geometry">
            <mxPoint x="-13" y="-26" as="offset" />
          </mxGeometry>
        </mxCell>
        <mxCell id="NPoixGDkpMfQCLvvEqdP-7" value="Actor" style="shape=umlActor;verticalLabelPosition=bottom;verticalAlign=top;html=1;outlineConnect=0;fontSize=16;" vertex="1" parent="1">
          <mxGeometry x="220" y="310" width="30" height="60" as="geometry" />
        </mxCell>
        <mxCell id="NPoixGDkpMfQCLvvEqdP-13" value="" style="edgeStyle=none;curved=1;rounded=0;orthogonalLoop=1;jettySize=auto;html=1;fontSize=12;startSize=8;endSize=8;" edge="1" parent="1" source="NPoixGDkpMfQCLvvEqdP-9" target="NPoixGDkpMfQCLvvEqdP-11">
          <mxGeometry relative="1" as="geometry" />
        </mxCell>
        <mxCell id="NPoixGDkpMfQCLvvEqdP-9" value="Σελίδα αξιολόγηση διατροφολόγου" style="shape=umlBoundary;whiteSpace=wrap;html=1;fontSize=16;" vertex="1" parent="1">
          <mxGeometry x="170" y="110" width="130" height="100" as="geometry" />
        </mxCell>
        <mxCell id="NPoixGDkpMfQCLvvEqdP-14" value="" style="edgeStyle=none;curved=1;rounded=0;orthogonalLoop=1;jettySize=auto;html=1;fontSize=12;startSize=8;endSize=8;" edge="1" parent="1" source="NPoixGDkpMfQCLvvEqdP-11" target="NPoixGDkpMfQCLvvEqdP-12">
          <mxGeometry relative="1" as="geometry" />
        </mxCell>
        <mxCell id="NPoixGDkpMfQCLvvEqdP-16" value="" style="edgeStyle=none;curved=1;rounded=0;orthogonalLoop=1;jettySize=auto;html=1;fontSize=12;startSize=8;endSize=8;" edge="1" parent="1" source="NPoixGDkpMfQCLvvEqdP-11" target="NPoixGDkpMfQCLvvEqdP-15">
          <mxGeometry relative="1" as="geometry" />
        </mxCell>
        <mxCell id="NPoixGDkpMfQCLvvEqdP-11" value="Εμφάνισε" style="ellipse;shape=umlControl;whiteSpace=wrap;html=1;fontSize=16;" vertex="1" parent="1">
          <mxGeometry x="435" y="115" width="70" height="80" as="geometry" />
        </mxCell>
        <mxCell id="NPoixGDkpMfQCLvvEqdP-12" value="Λίστα διατροφολόγων" style="ellipse;shape=umlEntity;whiteSpace=wrap;html=1;fontSize=16;" vertex="1" parent="1">
          <mxGeometry x="420" y="-50" width="100" height="90" as="geometry" />
        </mxCell>
        <mxCell id="NPoixGDkpMfQCLvvEqdP-26" value="" style="edgeStyle=none;curved=1;rounded=0;orthogonalLoop=1;jettySize=auto;html=1;fontSize=12;startSize=8;endSize=8;" edge="1" parent="1" source="NPoixGDkpMfQCLvvEqdP-15" target="NPoixGDkpMfQCLvvEqdP-19">
          <mxGeometry relative="1" as="geometry" />
        </mxCell>
        <mxCell id="NPoixGDkpMfQCLvvEqdP-15" value="Σελίδα επιλογής διατροφολόγου" style="shape=umlBoundary;whiteSpace=wrap;html=1;fontSize=16;" vertex="1" parent="1">
          <mxGeometry x="420" y="300" width="100" height="80" as="geometry" />
        </mxCell>
        <mxCell id="NPoixGDkpMfQCLvvEqdP-22" value="" style="edgeStyle=none;curved=1;rounded=0;orthogonalLoop=1;jettySize=auto;html=1;fontSize=12;startSize=8;endSize=8;" edge="1" parent="1" source="NPoixGDkpMfQCLvvEqdP-19" target="NPoixGDkpMfQCLvvEqdP-21">
          <mxGeometry relative="1" as="geometry" />
        </mxCell>
        <mxCell id="NPoixGDkpMfQCLvvEqdP-28" value="" style="edgeStyle=none;curved=1;rounded=0;orthogonalLoop=1;jettySize=auto;html=1;fontSize=12;startSize=8;endSize=8;" edge="1" parent="1" source="NPoixGDkpMfQCLvvEqdP-19" target="NPoixGDkpMfQCLvvEqdP-27">
          <mxGeometry relative="1" as="geometry">
            <mxPoint x="550" y="420" as="targetPoint" />
          </mxGeometry>
        </mxCell>
        <mxCell id="NPoixGDkpMfQCLvvEqdP-32" value="Ναι" style="edgeLabel;html=1;align=center;verticalAlign=middle;resizable=0;points=[];fontSize=16;" vertex="1" connectable="0" parent="NPoixGDkpMfQCLvvEqdP-28">
          <mxGeometry x="0.3" y="3" relative="1" as="geometry">
            <mxPoint x="-22" as="offset" />
          </mxGeometry>
        </mxCell>
        <mxCell id="NPoixGDkpMfQCLvvEqdP-75" value="" style="edgeStyle=none;curved=1;rounded=0;orthogonalLoop=1;jettySize=auto;html=1;fontSize=12;startSize=8;endSize=8;exitX=0.512;exitY=0.132;exitDx=0;exitDy=0;exitPerimeter=0;" edge="1" parent="1" source="NPoixGDkpMfQCLvvEqdP-19" target="NPoixGDkpMfQCLvvEqdP-60">
          <mxGeometry relative="1" as="geometry" />
        </mxCell>
        <mxCell id="NPoixGDkpMfQCLvvEqdP-76" value="Όχι" style="edgeLabel;html=1;align=center;verticalAlign=middle;resizable=0;points=[];fontSize=16;" vertex="1" connectable="0" parent="NPoixGDkpMfQCLvvEqdP-75">
          <mxGeometry x="-0.3718" relative="1" as="geometry">
            <mxPoint x="-18" as="offset" />
          </mxGeometry>
        </mxCell>
        <mxCell id="NPoixGDkpMfQCLvvEqdP-19" value="Έχει γίνει ραντεβού;" style="ellipse;shape=umlControl;whiteSpace=wrap;html=1;fontSize=16;" vertex="1" parent="1">
          <mxGeometry x="576.25" y="300" width="82.5" height="90" as="geometry" />
        </mxCell>
        <mxCell id="NPoixGDkpMfQCLvvEqdP-21" value="Λίστα τα ραντεβού μου" style="ellipse;shape=umlEntity;whiteSpace=wrap;html=1;fontSize=16;" vertex="1" parent="1">
          <mxGeometry x="710" y="305" width="80" height="80" as="geometry" />
        </mxCell>
        <mxCell id="NPoixGDkpMfQCLvvEqdP-36" value="" style="edgeStyle=none;curved=1;rounded=0;orthogonalLoop=1;jettySize=auto;html=1;fontSize=12;startSize=8;endSize=8;" edge="1" parent="1" source="NPoixGDkpMfQCLvvEqdP-27" target="NPoixGDkpMfQCLvvEqdP-33">
          <mxGeometry relative="1" as="geometry" />
        </mxCell>
        <mxCell id="NPoixGDkpMfQCLvvEqdP-27" value="Εμφάνισε" style="ellipse;shape=umlControl;whiteSpace=wrap;html=1;fontSize=16;" vertex="1" parent="1">
          <mxGeometry x="580" y="430" width="70" height="80" as="geometry" />
        </mxCell>
        <mxCell id="NPoixGDkpMfQCLvvEqdP-80" value="" style="edgeStyle=none;curved=1;rounded=0;orthogonalLoop=1;jettySize=auto;html=1;fontSize=12;startSize=8;endSize=8;" edge="1" parent="1" source="NPoixGDkpMfQCLvvEqdP-33" target="NPoixGDkpMfQCLvvEqdP-37">
          <mxGeometry relative="1" as="geometry" />
        </mxCell>
        <mxCell id="NPoixGDkpMfQCLvvEqdP-33" value="Σελίδα συμπλήρωσης φόρμας" style="shape=umlBoundary;whiteSpace=wrap;html=1;fontSize=16;" vertex="1" parent="1">
          <mxGeometry x="350" y="430" width="120" height="90" as="geometry" />
        </mxCell>
        <mxCell id="NPoixGDkpMfQCLvvEqdP-82" value="" style="edgeStyle=none;curved=1;rounded=0;orthogonalLoop=1;jettySize=auto;html=1;fontSize=12;startSize=8;endSize=8;exitX=0.031;exitY=0.503;exitDx=0;exitDy=0;exitPerimeter=0;" edge="1" parent="1" source="NPoixGDkpMfQCLvvEqdP-37" target="NPoixGDkpMfQCLvvEqdP-40">
          <mxGeometry relative="1" as="geometry" />
        </mxCell>
        <mxCell id="NPoixGDkpMfQCLvvEqdP-83" value="Ναι" style="edgeLabel;html=1;align=center;verticalAlign=middle;resizable=0;points=[];fontSize=16;" vertex="1" connectable="0" parent="NPoixGDkpMfQCLvvEqdP-82">
          <mxGeometry x="-0.5233" y="2" relative="1" as="geometry">
            <mxPoint x="-26" y="-22" as="offset" />
          </mxGeometry>
        </mxCell>
        <mxCell id="NPoixGDkpMfQCLvvEqdP-91" value="" style="edgeStyle=none;curved=1;rounded=0;orthogonalLoop=1;jettySize=auto;html=1;fontSize=12;startSize=8;endSize=8;" edge="1" parent="1" source="NPoixGDkpMfQCLvvEqdP-37" target="NPoixGDkpMfQCLvvEqdP-88">
          <mxGeometry relative="1" as="geometry" />
        </mxCell>
        <mxCell id="NPoixGDkpMfQCLvvEqdP-95" value="Όχι&amp;nbsp;" style="edgeLabel;html=1;align=center;verticalAlign=middle;resizable=0;points=[];fontSize=16;" vertex="1" connectable="0" parent="NPoixGDkpMfQCLvvEqdP-91">
          <mxGeometry x="-0.2918" y="-2" relative="1" as="geometry">
            <mxPoint x="2" y="-22" as="offset" />
          </mxGeometry>
        </mxCell>
        <mxCell id="NPoixGDkpMfQCLvvEqdP-37" value="Πεδία σωστά;" style="ellipse;shape=umlControl;whiteSpace=wrap;html=1;fontSize=16;" vertex="1" parent="1">
          <mxGeometry x="360" y="557.5" width="98" height="95" as="geometry" />
        </mxCell>
        <mxCell id="NPoixGDkpMfQCLvvEqdP-51" value="" style="edgeStyle=none;curved=1;rounded=0;orthogonalLoop=1;jettySize=auto;html=1;fontSize=12;startSize=8;endSize=8;" edge="1" parent="1" source="NPoixGDkpMfQCLvvEqdP-39" target="NPoixGDkpMfQCLvvEqdP-44">
          <mxGeometry relative="1" as="geometry" />
        </mxCell>
        <mxCell id="NPoixGDkpMfQCLvvEqdP-39" value="Μήνυμα επιτυχούς υποβολής" style="shape=umlBoundary;whiteSpace=wrap;html=1;fontSize=16;" vertex="1" parent="1">
          <mxGeometry x="-77.5" y="557.5" width="100" height="80" as="geometry" />
        </mxCell>
        <mxCell id="NPoixGDkpMfQCLvvEqdP-50" value="" style="edgeStyle=none;curved=1;rounded=0;orthogonalLoop=1;jettySize=auto;html=1;fontSize=12;startSize=8;endSize=8;" edge="1" parent="1" source="NPoixGDkpMfQCLvvEqdP-40" target="NPoixGDkpMfQCLvvEqdP-39">
          <mxGeometry relative="1" as="geometry" />
        </mxCell>
        <mxCell id="NPoixGDkpMfQCLvvEqdP-40" value="Εμφάνισε" style="ellipse;shape=umlControl;whiteSpace=wrap;html=1;fontSize=16;" vertex="1" parent="1">
          <mxGeometry x="180" y="565" width="70" height="80" as="geometry" />
        </mxCell>
        <mxCell id="NPoixGDkpMfQCLvvEqdP-47" value="" style="edgeStyle=none;curved=1;rounded=0;orthogonalLoop=1;jettySize=auto;html=1;fontSize=12;startSize=8;endSize=8;" edge="1" parent="1" source="NPoixGDkpMfQCLvvEqdP-44" target="NPoixGDkpMfQCLvvEqdP-46">
          <mxGeometry relative="1" as="geometry" />
        </mxCell>
        <mxCell id="NPoixGDkpMfQCLvvEqdP-86" value="" style="edgeStyle=none;curved=1;rounded=0;orthogonalLoop=1;jettySize=auto;html=1;fontSize=12;startSize=8;endSize=8;" edge="1" parent="1" source="NPoixGDkpMfQCLvvEqdP-44" target="NPoixGDkpMfQCLvvEqdP-85">
          <mxGeometry relative="1" as="geometry" />
        </mxCell>
        <mxCell id="NPoixGDkpMfQCLvvEqdP-44" value="Ανανέωση&amp;nbsp;&lt;br&gt;λίστας διατροφολόγων" style="ellipse;shape=umlControl;whiteSpace=wrap;html=1;fontSize=16;" vertex="1" parent="1">
          <mxGeometry x="-70" y="115" width="85" height="95" as="geometry" />
        </mxCell>
        <mxCell id="NPoixGDkpMfQCLvvEqdP-46" value="Λίστα διατροφολόγων" style="ellipse;shape=umlEntity;whiteSpace=wrap;html=1;fontSize=16;" vertex="1" parent="1">
          <mxGeometry x="-70" y="-30" width="90" height="80" as="geometry" />
        </mxCell>
        <mxCell id="NPoixGDkpMfQCLvvEqdP-72" value="" style="edgeStyle=none;curved=1;rounded=0;orthogonalLoop=1;jettySize=auto;html=1;fontSize=12;startSize=8;endSize=8;" edge="1" parent="1" source="NPoixGDkpMfQCLvvEqdP-59" target="NPoixGDkpMfQCLvvEqdP-71">
          <mxGeometry relative="1" as="geometry" />
        </mxCell>
        <mxCell id="NPoixGDkpMfQCLvvEqdP-59" value="Μήνυμα σφάλματος" style="shape=umlBoundary;whiteSpace=wrap;html=1;fontSize=16;" vertex="1" parent="1">
          <mxGeometry x="558.75" y="-170" width="100" height="80" as="geometry" />
        </mxCell>
        <mxCell id="NPoixGDkpMfQCLvvEqdP-63" value="" style="edgeStyle=none;curved=1;rounded=0;orthogonalLoop=1;jettySize=auto;html=1;fontSize=12;startSize=8;endSize=8;" edge="1" parent="1" source="NPoixGDkpMfQCLvvEqdP-60" target="NPoixGDkpMfQCLvvEqdP-59">
          <mxGeometry relative="1" as="geometry" />
        </mxCell>
        <mxCell id="NPoixGDkpMfQCLvvEqdP-60" value="Εμφάνισε" style="ellipse;shape=umlControl;whiteSpace=wrap;html=1;fontSize=16;" vertex="1" parent="1">
          <mxGeometry x="576.25" y="110" width="70" height="90" as="geometry" />
        </mxCell>
        <mxCell id="NPoixGDkpMfQCLvvEqdP-73" value="" style="edgeStyle=none;curved=1;rounded=0;orthogonalLoop=1;jettySize=auto;html=1;fontSize=12;startSize=8;endSize=8;" edge="1" parent="1" source="NPoixGDkpMfQCLvvEqdP-71" target="NPoixGDkpMfQCLvvEqdP-9">
          <mxGeometry relative="1" as="geometry" />
        </mxCell>
        <mxCell id="NPoixGDkpMfQCLvvEqdP-71" value="Εμφάνισε" style="ellipse;shape=umlControl;whiteSpace=wrap;html=1;fontSize=16;" vertex="1" parent="1">
          <mxGeometry x="215" y="-160" width="65" height="80" as="geometry" />
        </mxCell>
        <mxCell id="NPoixGDkpMfQCLvvEqdP-87" value="" style="edgeStyle=none;curved=1;rounded=0;orthogonalLoop=1;jettySize=auto;html=1;fontSize=12;startSize=8;endSize=8;" edge="1" parent="1" source="NPoixGDkpMfQCLvvEqdP-85" target="NPoixGDkpMfQCLvvEqdP-9">
          <mxGeometry relative="1" as="geometry" />
        </mxCell>
        <mxCell id="NPoixGDkpMfQCLvvEqdP-85" value="Εμφάνισε" style="ellipse;shape=umlControl;whiteSpace=wrap;html=1;fontSize=16;" vertex="1" parent="1">
          <mxGeometry x="45" y="120" width="70" height="80" as="geometry" />
        </mxCell>
        <mxCell id="NPoixGDkpMfQCLvvEqdP-96" value="" style="edgeStyle=none;curved=1;rounded=0;orthogonalLoop=1;jettySize=auto;html=1;fontSize=12;startSize=8;endSize=8;" edge="1" parent="1" source="NPoixGDkpMfQCLvvEqdP-88" target="NPoixGDkpMfQCLvvEqdP-33">
          <mxGeometry relative="1" as="geometry" />
        </mxCell>
        <mxCell id="NPoixGDkpMfQCLvvEqdP-88" value="Εμφάνισε" style="ellipse;shape=umlControl;whiteSpace=wrap;html=1;fontSize=16;" vertex="1" parent="1">
          <mxGeometry x="590" y="565" width="60" height="80" as="geometry" />
        </mxCell>
      </root>
    </mxGraphModel>
  </diagram>
</mxfile>
